<svg width="212" height="239" viewBox="0 0 212 239" fill="none" xmlns="http://www.w3.org/2000/svg">
<line x1="0.5" y1="6.66144" x2="0.499991" y2="205.661" stroke="black"/>
<line y1="205.161" x2="105" y2="205.161" stroke="black"/>
<line x1="105.5" y1="17.6614" x2="105.5" y2="205.661" stroke="black"/>
<line y1="6.16144" x2="10" y2="6.16144" stroke="black"/>
<line x1="9.5" y1="1.66144" x2="9.49999" y2="188.661" stroke="black"/>
<path d="M105.5 205.161C105.5 197.161 41.5 184.829 9.5 188.162" stroke="black"/>
<path d="M104.89 204.521C105 204.678 105.029 204.838 104.97 205C104.97 204.84 104.943 204.68 104.89 204.521Z" fill="black"/>
<path d="M3 199.491C3.51124 196.816 107.002 199.33 104.97 205C104.97 196.987 37.3218 189.641 5.48708 192.98M105.5 18C105.5 9.98682 40.7764 -1.73695 8.94175 1.60187" stroke="black"/>
<path d="M5.5 3.66144L5.5 193.5" stroke="black"/>
<line x1="5" y1="3.16144" x2="9" y2="3.16144" stroke="black"/>
<path d="M3 3.66144L3 199.757" stroke="black"/>
<line x1="6" y1="4.16144" x2="3" y2="4.16144" stroke="black"/>
<path d="M41.1758 61.5234V90.9668C41.1758 93.2129 41.3711 94.5801 41.7617 95.0684C42.2012 95.5078 43.4707 95.7275 45.5703 95.7275H56.8496C61.9766 95.7275 66.0293 95.4346 69.0078 94.8486C71.6445 94.3115 73.3535 93.6035 74.1348 92.7246C74.916 91.8457 75.624 89.7949 76.2588 86.5723C76.5029 85.3516 77.1133 84.7656 78.0898 84.8145C79.0176 84.8633 79.4814 85.5225 79.4814 86.792C79.4814 87.1338 79.457 87.6709 79.4082 88.4033C79.0176 93.1396 78.8223 97.4609 78.8223 101.367C78.8223 104.346 78.9688 107.3 79.2617 110.229C79.3594 111.206 79.4082 111.914 79.4082 112.354C79.4082 113.574 78.9443 114.185 78.0166 114.185C76.9912 114.185 76.3809 113.647 76.1855 112.573L75.7461 110.522C75.1602 107.251 73.9883 105.029 72.2305 103.857C70.4727 102.686 67.4941 102.1 63.2949 102.1H47.1084C44.7158 102.1 43.1045 102.344 42.2744 102.832C41.4932 103.32 41.1025 104.297 41.1025 105.762L41.1758 108.179V135.132C41.1758 139.282 41.9082 141.87 43.373 142.896C44.8867 143.921 48.6709 144.434 54.7256 144.434C73.915 144.434 86.2441 140.112 91.7129 131.47C92.25 130.64 92.7871 130.2 93.3242 130.151C94.2031 130.103 94.6426 130.737 94.6426 132.056C94.6426 135.229 92.8604 139.014 89.2959 143.408C84.999 148.682 79.5791 151.318 73.0361 151.318C71.6201 151.318 69.7158 151.221 67.3232 151.025C57.9971 150.146 50.2822 149.707 44.1787 149.707C35.6338 149.707 29.6035 150 26.0879 150.586C24.2324 150.928 22.9629 151.099 22.2793 151.099C20.7168 151.099 19.9355 150.562 19.9355 149.487C19.9355 148.657 20.5703 148.071 21.8398 147.729L24.623 146.924C28.1387 145.947 29.8965 142.529 29.8965 136.67L29.9697 131.909V70.0195C29.9697 63.0371 29.1885 58.3496 27.626 55.957C26.1123 53.5156 23.1338 52.2949 18.6904 52.2949C17.2744 52.2949 16.5664 51.8311 16.5664 50.9033C16.5664 49.5361 17.665 48.8525 19.8623 48.8525C21.083 48.8525 22.7188 48.9746 24.7695 49.2188C31.752 50 40.1504 50.3906 49.9648 50.3906C55.9219 50.3906 61.1953 50.293 65.7852 50.0977L76.1855 49.585C79.0664 49.4873 80.8242 49.3896 81.459 49.292C82.7773 49.0967 83.7539 48.999 84.3887 48.999C86 48.999 86.8057 49.707 86.8057 51.123C86.8057 51.5625 86.7324 52.124 86.5859 52.8076C86.4395 53.4912 86.2441 55.4443 86 58.667L85.707 62.9883C85.4629 65.8203 85.2188 67.6025 84.9746 68.335C84.7305 69.0186 84.1934 69.3848 83.3633 69.4336C82.4355 69.4824 81.9717 68.75 81.9717 67.2363V65.332C81.9717 63.7695 81.6787 62.2803 81.0928 60.8643C80.165 58.667 78.2852 57.2021 75.4531 56.4697C72.6211 55.7373 67.4209 55.3711 59.8525 55.3711H48.3535C45.3262 55.3711 43.373 55.7617 42.4941 56.543C41.6152 57.2754 41.1758 58.9355 41.1758 61.5234Z" fill="black"/>
<line y1="-0.5" x2="199" y2="-0.5" transform="matrix(4.48097e-08 1 1 -4.48097e-08 211.78 6.66144)" stroke="black"/>
<path d="M211.78 205.161L106 205.161" stroke="black"/>
<line y1="-0.5" x2="10" y2="-0.5" transform="matrix(-1 0 0 1 211.78 6.66144)" stroke="black"/>
<path d="M202.28 1L202.28 188.661" stroke="black"/>
<path d="M106.28 205.161C106.28 197.161 170.28 184.829 202.28 188.162" stroke="black"/>
<path d="M106.081 205.021C105.97 205.178 105.941 205.337 106 205.5C106 205.34 106.027 205.18 106.081 205.021Z" fill="black"/>
<path d="M208.78 200.145C208.265 197.467 103.952 199.822 106 205.5C106 197.476 174.196 190.283 206.274 193.626M105.5 18C105.5 9.97637 170.422 -1.84317 202.5 1.5" stroke="black"/>
<path d="M206.28 3.66144L206.28 194.112" stroke="black"/>
<line y1="-0.5" x2="4" y2="-0.5" transform="matrix(-1 0 0 1 206.78 3.66144)" stroke="black"/>
<path d="M208.78 3.66144L208.78 200.391" stroke="black"/>
<line y1="-0.5" x2="3" y2="-0.5" transform="matrix(1 -8.74228e-08 -8.74228e-08 -1 205.78 3.66144)" stroke="black"/>
<path d="M131.176 107.128V133.935C131.176 139.55 131.933 143.261 133.446 145.067C134.96 146.874 138.427 148.217 143.847 149.096C145.263 149.34 145.995 149.853 146.044 150.634C146.093 151.61 145.507 152.074 144.286 152.025C143.603 151.977 142.284 151.879 140.331 151.732C138.72 151.586 135.814 151.513 131.615 151.513L125.756 151.439L120.556 151.586C118.505 151.586 117.162 151.61 116.527 151.659C113.939 151.903 112.475 152.025 112.133 152.025C110.521 152.025 109.716 151.439 109.716 150.268C109.716 149.486 110.424 149.022 111.84 148.876C114.867 148.583 116.967 147.143 118.139 144.555C119.359 141.967 119.97 137.621 119.97 131.518V69.2617C119.97 64.0371 119.408 60.3994 118.285 58.3486C117.162 56.249 115.014 54.8574 111.84 54.1738L108.251 53.4414C106.981 53.1484 106.347 52.6357 106.347 51.9033C106.347 50.8779 107.006 50.3652 108.324 50.3652C109.057 50.3652 109.936 50.4385 110.961 50.585C113.451 50.8779 117.357 51.0244 122.68 51.0244L125.39 50.9512L130.883 50.8047C132.348 50.8047 133.617 50.7803 134.691 50.7314C136.645 50.5361 137.816 50.4385 138.207 50.4385C139.379 50.3896 139.965 50.8535 139.965 51.8301C139.965 52.5137 139.379 53.0996 138.207 53.5879C135.131 54.9062 133.178 56.4199 132.348 58.1289C131.566 59.7891 131.176 63.1094 131.176 68.0898V96.6543C131.176 97.6797 131.396 98.1924 131.835 98.1924L133.007 97.3867L134.105 96.5078L165.6 68.3096C170.434 64.0127 172.851 60.5703 172.851 57.9824C172.851 55.7363 171.093 54.2959 167.577 53.6611C165.331 53.3193 164.208 52.6846 164.208 51.7568C164.208 50.7314 164.965 50.2188 166.479 50.2188C166.918 50.2188 167.577 50.2676 168.456 50.3652C170.507 50.5605 172.802 50.6582 175.341 50.6582L182.079 50.8779L187.572 50.8047C190.648 50.8047 192.675 50.7314 193.651 50.585C194.774 50.3896 195.531 50.292 195.922 50.292C197.24 50.292 197.948 50.7803 198.046 51.7568C198.095 52.5381 196.923 53.2217 194.53 53.8076C190.136 54.9307 181.713 61.083 169.262 72.2646L144.14 94.8965C143.065 95.873 142.504 96.6543 142.455 97.2402C142.406 97.9727 142.992 98.998 144.213 100.316L182.445 140.16C186.498 144.408 190.917 147.021 195.702 147.997L198.925 148.656C200.048 148.9 200.609 149.389 200.609 150.121C200.609 151.342 199.853 151.903 198.339 151.806C197.899 151.806 197.313 151.757 196.581 151.659C195.653 151.513 193.554 151.439 190.282 151.439C187.353 151.439 185.229 151.488 183.91 151.586C182.445 151.684 181.322 151.732 180.541 151.732C178.881 151.732 177.44 151.073 176.22 149.755L174.975 148.363L135.717 107.86L134.252 106.249C133.666 105.712 133.08 105.443 132.494 105.443C131.615 105.443 131.176 106.005 131.176 107.128Z" fill="black"/>
<path d="M183.033 199V237.667" stroke="black" stroke-width="1.93337"/>
<path d="M184 237.667C182.713 237.69 177.339 233.631 174.5 230" stroke="black" stroke-width="1.93337"/>
<path d="M164.967 199V237.667" stroke="black" stroke-width="1.93337"/>
<path d="M164 237.667C165.287 237.69 170.661 233.631 173.5 230" stroke="black" stroke-width="1.93337"/>
<path d="M175.5 229.415C175.5 230.243 174.828 230.915 174 230.915C173.172 230.915 172.5 230.243 172.5 229.415C172.5 228.586 173.172 227.915 174 227.915C174.828 227.915 175.5 228.586 175.5 229.415Z" fill="black"/>
</svg>
